G75*
%MOIN*%
%OFA0B0*%
%FSLAX24Y24*%
%IPPOS*%
%LPD*%
%AMOC8*
5,1,8,0,0,1.08239X$1,22.5*
%
%ADD10OC8,0.0660*%
%ADD11R,0.0660X0.0660*%
%ADD12OC8,0.0600*%
%ADD13C,0.0160*%
D10*
X000880Y000880D03*
X000880Y001880D03*
X000880Y002880D03*
X000880Y003880D03*
X000880Y004880D03*
X007380Y004380D03*
X007380Y003380D03*
X007380Y002380D03*
D11*
X000880Y005880D03*
D12*
X004180Y004380D03*
X004180Y003380D03*
X004180Y002380D03*
D13*
X000381Y000381D02*
X000362Y000412D01*
X000360Y000430D01*
X000360Y006330D01*
X000362Y006348D01*
X000381Y006379D01*
X000412Y006398D01*
X000430Y006400D01*
X007830Y006400D01*
X007848Y006398D01*
X007879Y006379D01*
X007898Y006348D01*
X007900Y006330D01*
X007900Y000430D01*
X007898Y000412D01*
X007879Y000381D01*
X007848Y000362D01*
X007830Y000360D01*
X000430Y000360D01*
X000412Y000362D01*
X000381Y000381D01*
X000360Y000497D02*
X000542Y000497D01*
X000669Y000370D02*
X000370Y000669D01*
X000370Y000860D01*
X000860Y000860D01*
X000860Y000900D01*
X000370Y000900D01*
X000370Y001091D01*
X000659Y001380D01*
X000370Y001669D01*
X000370Y002091D01*
X000659Y002380D01*
X000370Y002669D01*
X000370Y003091D01*
X000659Y003380D01*
X000370Y003669D01*
X000370Y004091D01*
X000659Y004380D01*
X000370Y004669D01*
X000370Y005091D01*
X000649Y005370D01*
X000475Y005370D01*
X000370Y005475D01*
X000370Y006285D01*
X000475Y006390D01*
X001285Y006390D01*
X001390Y006285D01*
X001390Y005475D01*
X001285Y005370D01*
X001111Y005370D01*
X001390Y005091D01*
X001390Y004669D01*
X001101Y004380D01*
X001390Y004091D01*
X001390Y003669D01*
X001101Y003380D01*
X001390Y003091D01*
X001390Y002669D01*
X001101Y002380D01*
X001390Y002091D01*
X001390Y001669D01*
X001101Y001380D01*
X001390Y001091D01*
X001390Y000900D01*
X000900Y000900D01*
X000900Y000860D01*
X001390Y000860D01*
X001390Y000669D01*
X001091Y000370D01*
X000900Y000370D01*
X000900Y000860D01*
X000860Y000860D01*
X000860Y000370D01*
X000669Y000370D01*
X000860Y000497D02*
X000900Y000497D01*
X000900Y000656D02*
X000860Y000656D01*
X000860Y000814D02*
X000900Y000814D01*
X001218Y000497D02*
X007900Y000497D01*
X007900Y000656D02*
X001377Y000656D01*
X001390Y000814D02*
X007900Y000814D01*
X007900Y000973D02*
X001390Y000973D01*
X001350Y001131D02*
X007900Y001131D01*
X007900Y001290D02*
X001192Y001290D01*
X001169Y001448D02*
X007900Y001448D01*
X007900Y001607D02*
X001328Y001607D01*
X001390Y001765D02*
X007900Y001765D01*
X007900Y001924D02*
X007645Y001924D01*
X007591Y001870D02*
X007890Y002169D01*
X007890Y002591D01*
X007601Y002880D01*
X007890Y003169D01*
X007890Y003360D01*
X007400Y003360D01*
X007400Y003400D01*
X007890Y003400D01*
X007890Y003591D01*
X007601Y003880D01*
X007890Y004169D01*
X007890Y004591D01*
X007591Y004890D01*
X007169Y004890D01*
X006870Y004591D01*
X006870Y004169D01*
X007159Y003880D01*
X006870Y003591D01*
X006870Y003400D01*
X007360Y003400D01*
X007360Y003360D01*
X006870Y003360D01*
X006870Y003169D01*
X007159Y002880D01*
X006870Y002591D01*
X006870Y002169D01*
X007169Y001870D01*
X007591Y001870D01*
X007803Y002082D02*
X007900Y002082D01*
X007890Y002241D02*
X007900Y002241D01*
X007890Y002399D02*
X007900Y002399D01*
X007890Y002558D02*
X007900Y002558D01*
X007900Y002716D02*
X007765Y002716D01*
X007900Y002875D02*
X007607Y002875D01*
X007754Y003033D02*
X007900Y003033D01*
X007890Y003192D02*
X007900Y003192D01*
X007890Y003350D02*
X007900Y003350D01*
X007890Y003509D02*
X007900Y003509D01*
X007900Y003667D02*
X007814Y003667D01*
X007900Y003826D02*
X007656Y003826D01*
X007705Y003984D02*
X007900Y003984D01*
X007900Y004143D02*
X007864Y004143D01*
X007890Y004301D02*
X007900Y004301D01*
X007890Y004460D02*
X007900Y004460D01*
X007900Y004618D02*
X007863Y004618D01*
X007900Y004777D02*
X007705Y004777D01*
X007900Y004935D02*
X001390Y004935D01*
X001388Y005094D02*
X007900Y005094D01*
X007900Y005252D02*
X001229Y005252D01*
X001325Y005411D02*
X007900Y005411D01*
X007900Y005569D02*
X001390Y005569D01*
X001390Y005728D02*
X007900Y005728D01*
X007900Y005886D02*
X001390Y005886D01*
X001390Y006045D02*
X007900Y006045D01*
X007900Y006203D02*
X001390Y006203D01*
X001313Y006362D02*
X007890Y006362D01*
X007055Y004777D02*
X004462Y004777D01*
X004379Y004860D02*
X003981Y004860D01*
X003700Y004579D01*
X003700Y004181D01*
X003981Y003900D01*
X004379Y003900D01*
X004660Y004181D01*
X004660Y004579D01*
X004379Y004860D01*
X004621Y004618D02*
X006897Y004618D01*
X006870Y004460D02*
X004660Y004460D01*
X004660Y004301D02*
X006870Y004301D01*
X006896Y004143D02*
X004621Y004143D01*
X004463Y003984D02*
X007055Y003984D01*
X007104Y003826D02*
X004413Y003826D01*
X004379Y003860D02*
X003981Y003860D01*
X003700Y003579D01*
X003700Y003181D01*
X003981Y002900D01*
X004379Y002900D01*
X004660Y003181D01*
X004660Y003579D01*
X004379Y003860D01*
X004572Y003667D02*
X006946Y003667D01*
X006870Y003509D02*
X004660Y003509D01*
X004660Y003350D02*
X006870Y003350D01*
X006870Y003192D02*
X004660Y003192D01*
X004512Y003033D02*
X007006Y003033D01*
X007153Y002875D02*
X001390Y002875D01*
X001390Y003033D02*
X003848Y003033D01*
X003981Y002860D02*
X003700Y002579D01*
X003700Y002181D01*
X003981Y001900D01*
X004379Y001900D01*
X004660Y002181D01*
X004660Y002579D01*
X004379Y002860D01*
X003981Y002860D01*
X003837Y002716D02*
X001390Y002716D01*
X001279Y002558D02*
X003700Y002558D01*
X003700Y002399D02*
X001120Y002399D01*
X001241Y002241D02*
X003700Y002241D01*
X003799Y002082D02*
X001390Y002082D01*
X001390Y001924D02*
X003958Y001924D01*
X004402Y001924D02*
X007115Y001924D01*
X006957Y002082D02*
X004561Y002082D01*
X004660Y002241D02*
X006870Y002241D01*
X006870Y002399D02*
X004660Y002399D01*
X004660Y002558D02*
X006870Y002558D01*
X006995Y002716D02*
X004523Y002716D01*
X003700Y003192D02*
X001290Y003192D01*
X001131Y003350D02*
X003700Y003350D01*
X003700Y003509D02*
X001230Y003509D01*
X001388Y003667D02*
X003788Y003667D01*
X003947Y003826D02*
X001390Y003826D01*
X001390Y003984D02*
X003897Y003984D01*
X003739Y004143D02*
X001339Y004143D01*
X001180Y004301D02*
X003700Y004301D01*
X003700Y004460D02*
X001181Y004460D01*
X001339Y004618D02*
X003739Y004618D01*
X003898Y004777D02*
X001390Y004777D01*
X000579Y004460D02*
X000360Y004460D01*
X000360Y004301D02*
X000580Y004301D01*
X000421Y004143D02*
X000360Y004143D01*
X000360Y003984D02*
X000370Y003984D01*
X000360Y003826D02*
X000370Y003826D01*
X000360Y003667D02*
X000372Y003667D01*
X000360Y003509D02*
X000530Y003509D01*
X000629Y003350D02*
X000360Y003350D01*
X000360Y003192D02*
X000470Y003192D01*
X000370Y003033D02*
X000360Y003033D01*
X000360Y002875D02*
X000370Y002875D01*
X000360Y002716D02*
X000370Y002716D01*
X000360Y002558D02*
X000481Y002558D01*
X000360Y002399D02*
X000640Y002399D01*
X000519Y002241D02*
X000360Y002241D01*
X000360Y002082D02*
X000370Y002082D01*
X000360Y001924D02*
X000370Y001924D01*
X000360Y001765D02*
X000370Y001765D01*
X000360Y001607D02*
X000432Y001607D01*
X000360Y001448D02*
X000591Y001448D01*
X000568Y001290D02*
X000360Y001290D01*
X000360Y001131D02*
X000410Y001131D01*
X000370Y000973D02*
X000360Y000973D01*
X000360Y000814D02*
X000370Y000814D01*
X000360Y000656D02*
X000383Y000656D01*
X000360Y004618D02*
X000421Y004618D01*
X000370Y004777D02*
X000360Y004777D01*
X000360Y004935D02*
X000370Y004935D01*
X000360Y005094D02*
X000372Y005094D01*
X000360Y005252D02*
X000531Y005252D01*
X000435Y005411D02*
X000360Y005411D01*
X000360Y005569D02*
X000370Y005569D01*
X000360Y005728D02*
X000370Y005728D01*
X000360Y005886D02*
X000370Y005886D01*
X000360Y006045D02*
X000370Y006045D01*
X000360Y006203D02*
X000370Y006203D01*
X000370Y006362D02*
X000447Y006362D01*
M02*
