G75*
%MOIN*%
%OFA0B0*%
%FSLAX24Y24*%
%IPPOS*%
%LPD*%
%AMOC8*
5,1,8,0,0,1.08239X$1,22.5*
%
%ADD10C,0.0000*%
D10*
X000430Y000180D02*
X007830Y000180D01*
X007860Y000182D01*
X007890Y000187D01*
X007919Y000196D01*
X007946Y000209D01*
X007972Y000224D01*
X007996Y000243D01*
X008017Y000264D01*
X008036Y000288D01*
X008051Y000314D01*
X008064Y000341D01*
X008073Y000370D01*
X008078Y000400D01*
X008080Y000430D01*
X008080Y006330D01*
X008078Y006360D01*
X008073Y006390D01*
X008064Y006419D01*
X008051Y006446D01*
X008036Y006472D01*
X008017Y006496D01*
X007996Y006517D01*
X007972Y006536D01*
X007946Y006551D01*
X007919Y006564D01*
X007890Y006573D01*
X007860Y006578D01*
X007830Y006580D01*
X000430Y006580D01*
X000400Y006578D01*
X000370Y006573D01*
X000341Y006564D01*
X000314Y006551D01*
X000288Y006536D01*
X000264Y006517D01*
X000243Y006496D01*
X000224Y006472D01*
X000209Y006446D01*
X000196Y006419D01*
X000187Y006390D01*
X000182Y006360D01*
X000180Y006330D01*
X000180Y000430D01*
X000182Y000400D01*
X000187Y000370D01*
X000196Y000341D01*
X000209Y000314D01*
X000224Y000288D01*
X000243Y000264D01*
X000264Y000243D01*
X000288Y000224D01*
X000314Y000209D01*
X000341Y000196D01*
X000370Y000187D01*
X000400Y000182D01*
X000430Y000180D01*
M02*
